<svg xmlns="http://www.w3.org/2000/svg" viewBox="0 0 147.04 147.04"><defs><style>.cls-1{fill:#ffb31a;stroke:#820000;stroke-miterlimit:10;}.cls-2{fill:#fff;}</style></defs><g id="Layer_2" data-name="Layer 2"><g id="Layer_4" data-name="Layer 4"><circle class="cls-1" cx="73.52" cy="73.52" r="73.02"/><path class="cls-2" d="M38.11,31.1,67.1,64a8.69,8.69,0,0,0,13,0l28.49-32.32a2.86,2.86,0,0,1,.8-.64,9.76,9.76,0,0,0-3.94-.83H41.75A9.79,9.79,0,0,0,38,31,1,1,0,0,1,38.11,31.1Z"/><path class="cls-2" d="M113.81,34.82a3,3,0,0,1-.55.94L84.77,68.08a14.88,14.88,0,0,1-22.31,0l-29-32.89c-.06-.07-.1-.15-.15-.22a9.87,9.87,0,0,0-1.42,5.08V84.57a9.85,9.85,0,0,0,9.85,9.84h63.73a9.85,9.85,0,0,0,9.85-9.84V40.05A9.71,9.71,0,0,0,113.81,34.82Z"/><path class="cls-2" d="M42.68,123.14h8.7v2.42H39.82V110.14H51.08v2.42h-8.4Zm-.22-6.59h7.67v2.36H42.46Z"/><path class="cls-2" d="M53.26,120.6v-2.33h6.08v2.33Z"/><path class="cls-2" d="M77.2,113.64a5.57,5.57,0,0,1,2.5.55,4,4,0,0,1,1.71,1.7,6.15,6.15,0,0,1,.61,2.93v6.74H79.29v-6.39a3.4,3.4,0,0,0-.69-2.33,2.49,2.49,0,0,0-2-.77,3.19,3.19,0,0,0-1.6.39A2.75,2.75,0,0,0,74,117.64a4.35,4.35,0,0,0-.38,2v6H70.83v-6.39a3.4,3.4,0,0,0-.69-2.33,2.49,2.49,0,0,0-2-.77,3.21,3.21,0,0,0-1.6.39,2.75,2.75,0,0,0-1.08,1.18,4.35,4.35,0,0,0-.38,2v6H62.37V113.8H65V117l-.49-1a4.15,4.15,0,0,1,1.73-1.74,5.41,5.41,0,0,1,2.61-.62,4.94,4.94,0,0,1,2.86.82A3.93,3.93,0,0,1,73.32,117l-1-.4a4.52,4.52,0,0,1,1.87-2.11A5.65,5.65,0,0,1,77.2,113.64Z"/><path class="cls-2" d="M89.1,125.71a5.55,5.55,0,0,1-2.32-.45A3.6,3.6,0,0,1,85.25,124a3.22,3.22,0,0,1-.54-1.82,3.4,3.4,0,0,1,.48-1.79,3.2,3.2,0,0,1,1.55-1.25,7.34,7.34,0,0,1,2.86-.46H93v1.83H89.8a2.86,2.86,0,0,0-1.88.45,1.47,1.47,0,0,0-.5,1.13,1.38,1.38,0,0,0,.6,1.17,2.72,2.72,0,0,0,1.65.44,3.7,3.7,0,0,0,1.82-.46,2.77,2.77,0,0,0,1.17-1.37l.44,1.65a3,3,0,0,1-1.41,1.61A5.23,5.23,0,0,1,89.1,125.71Zm3.7-.15v-2.4l-.14-.49v-4.16a2.4,2.4,0,0,0-.73-1.88,3.24,3.24,0,0,0-2.24-.68,6.37,6.37,0,0,0-1.92.31,5.37,5.37,0,0,0-1.63.86l-1.08-2a7,7,0,0,1,2.27-1.1,9.75,9.75,0,0,1,2.71-.38,5.76,5.76,0,0,1,4,1.24,4.81,4.81,0,0,1,1.39,3.78v6.9Z"/><path class="cls-2" d="M100.31,111.86a1.71,1.71,0,0,1-1.27-.49,1.6,1.6,0,0,1-.5-1.19A1.54,1.54,0,0,1,99,109a1.92,1.92,0,0,1,2.53,0,1.48,1.48,0,0,1,.5,1.15,1.63,1.63,0,0,1-.49,1.2A1.69,1.69,0,0,1,100.31,111.86Zm-1.37,13.7V113.8h2.73v11.76Z"/><path class="cls-2" d="M105.31,125.56V109.21H108v16.35Z"/></g></g></svg>