<svg xmlns="http://www.w3.org/2000/svg" 
viewBox="0 0 400 83">
<defs><style>.cls-1{fill:none;}.cls-2{fill:#da8e17;}.cls-3{fill:#c6261d;}.cls-4{fill:#0d3f62;}.cls-5{fill:#265526;}.cls-6{fill:#0c3f62;}</style>
</defs>
<g id="Layer_2" data-name="Layer 2">

<g id="Layer_1-2" data-name="Layer 1">
<path class="cls-1" d="M65.81,29.42l-.09-.08Z"/>
<path class="cls-2" d="M68.62,38.83H56.94a1.74,1.74,0,0,1-1.32-1.69,1.76,1.76,0,0,1,.83-1.48,3.58,3.58,0,1,0-5.49-3,3.55,3.55,0,0,0,1.67,3,1.79,1.79,0,0,1,.83,1.49,1.74,1.74,0,0,1-1.32,1.69H42.57v-14a1.73,1.73,0,0,0-1.73-1.74,1.76,1.76,0,0,0-1.49.84,3.58,3.58,0,1,1,0-3.82,1.76,1.76,0,0,0,1.48.84h0a1.73,1.73,0,0,0,1.73-1.74V10c14.31.15,23.08,11.67,23.24,19.42A14.08,14.08,0,0,0,68.62,38.83Z"/>
<path class="cls-3" d="M68.32,47.26c0,1.76,1.23,1.37,1.23,2.49s-1.94,1.33-1.94,1.33c.36,1,1.33,1.66,1.33,2.17,0,1.42-2.65,1.13-2.65,3.22s2.29,8-5.41,8c-6.72,0-8.32,1.27-8.42,1.37-2.25,2.07-3.36,4.63-.62,12.45a50.31,50.31,0,0,1-9.27,2.93V59.83A1.73,1.73,0,0,1,45.78,59a3.58,3.58,0,1,0,0-3.82,1.79,1.79,0,0,1-1.49.84,1.74,1.74,0,0,1-1.73-1.62V38.83h9.57a1.74,1.74,0,0,0,1.32-1.69,1.79,1.79,0,0,0-.83-1.49,3.57,3.57,0,0,1,2.11-6.59,3.58,3.58,0,0,1,1.71,6.6,1.76,1.76,0,0,0-.83,1.48,1.74,1.74,0,0,0,1.32,1.69H68.62c1.9,2.62,4,4.2,4,5.24C72.54,45.68,68.32,47.26,68.32,47.26Z"/>
<path class="cls-4" d="M52.38,57.33A3.58,3.58,0,0,1,45.78,59a1.73,1.73,0,0,0-3.21.79V81.18a11.53,11.53,0,0,1-2.52.19c-1.7-11.86-8-12.56-12.51-13.26a70.3,70.3,0,0,0,2-6.93c0-1.79-.42-2.08-3.32-5C20,49.94,17,44,16,38.83h9.34a1.73,1.73,0,0,1,1.35,1.69A1.76,1.76,0,0,1,25.85,42a3.58,3.58,0,1,0,3.82,0,1.79,1.79,0,0,1-.84-1.49,1.74,1.74,0,0,1,1.34-1.69h12.4V54.44a1.74,1.74,0,0,0,1.73,1.62,1.79,1.79,0,0,0,1.49-.84,3.58,3.58,0,0,1,6.59,2.11Z"/>
<path class="cls-5" d="M35.24,2.06l-3.36,8.61a1.73,1.73,0,0,1-2.25,1h0a1.76,1.76,0,0,1-1.08-1.32A3.54,3.54,0,0,0,26.07,7.6a3.57,3.57,0,0,0-2.33,6.75,3.53,3.53,0,0,0,3.42-.45,1.77,1.77,0,0,1,1.69-.24,1.73,1.73,0,0,1,1,2.25l-5.07,13-11.55-4.5a1.75,1.75,0,0,0-1.87,1.08,1.79,1.79,0,0,0,.24,1.7A3.57,3.57,0,1,1,8,25.79a1.73,1.73,0,0,0,.68-3.14L0,19.25A21.18,21.18,0,0,1,7.89,5.81C14.07.51,24.76-2,35,2Z"/>
<path class="cls-6" d="M100,21.94a12.16,12.16,0,0,1,6.34,1.7,12.88,12.88,0,0,1,4.55,4.55,12.62,12.62,0,0,1,0,12.65,12.85,12.85,0,0,1-4.55,4.54,12.58,12.58,0,0,1-12.63,0,12.72,12.72,0,0,1-4.57-4.56,12.19,12.19,0,0,1-1.69-6.32V15.79l5.12,2.56v3.59Zm0,20a7.44,7.44,0,0,0,7.43-7.43A7.44,7.44,0,0,0,100,27.06H92.56V34.5A7.49,7.49,0,0,0,100,42Z"/>
<path class="cls-6" d="M133.75,36V21.91h5.12V36a10.64,10.64,0,0,1-1.52,5.59,11.69,11.69,0,0,1-4.07,4,11.33,11.33,0,0,1-11.27,0,11.69,11.69,0,0,1-4.07-4A10.64,10.64,0,0,1,116.42,36V21.91h5.12V36a5.78,5.78,0,0,0,1.8,4.27,6.1,6.1,0,0,0,8.61,0A5.78,5.78,0,0,0,133.75,36Z"/><path class="cls-6" d="M155.3,42a4.72,4.72,0,0,0,.72-.07,3.21,3.21,0,0,0,.85-.22l1.79,4.8a7.42,7.42,0,0,1-1.82.48,11,11,0,0,1-1.54.13,12.08,12.08,0,0,1-6.32-1.7,12.72,12.72,0,0,1-4.57-4.56,12.2,12.2,0,0,1-1.7-6.32V15.57h5.13v6.15h8v5.12h-8V34.5A7.49,7.49,0,0,0,155.3,42Z"/>
<path class="cls-6" d="M178.78,47.08V15.73h21.93v5.12H183.9v8h12V34h-12v13.1Z"/><path class="cls-6" d="M209.68,15.73V47.08h-5.12V15.73Z"/><path class="cls-6" d="M237.42,24.85a8.77,8.77,0,0,1-1,4.23,9,9,0,0,1-2.78,3.17,13.21,13.21,0,0,1,2.78,4.15,12.76,12.76,0,0,1,1,5.14v5.54h-5.13V41.54a7.71,7.71,0,0,0-1.89-5.24A6.6,6.6,0,0,0,225.73,34h-7.08V47.08h-5.12V15.79h14.79a8.78,8.78,0,0,1,6.42,2.66A8.68,8.68,0,0,1,237.42,24.85Zm-18.77-3.93v7.91h9.67a3.84,3.84,0,0,0,2.8-1.16,3.94,3.94,0,0,0,0-5.6,3.84,3.84,0,0,0-2.8-1.15Z"/><path class="cls-6" d="M260.13,28.89a9.08,9.08,0,0,1,9.09,9.1,9.1,9.1,0,0,1-9.09,9.09H242.57V42h17.56a4,4,0,0,0,0-8h-9.77a9.13,9.13,0,0,1-9.1-9.09,8.76,8.76,0,0,1,2.68-6.45,8.72,8.72,0,0,1,6.42-2.68h17v5.13h-17a4,4,0,0,0-4,4,4,4,0,0,0,4,4h9.77Z"/><path class="cls-6" d="M273.06,20.85V15.73h26.52v5.12H288.89V47.08h-5.13V20.85Z"/><path class="cls-6" d="M344.64,15.79a10,10,0,0,1,10,10V47.08h-5.13V25.82a4.9,4.9,0,0,0-9.8,0V47.08h-5.12V25.82a4.9,4.9,0,0,0-9.8,0V47.08H319.7V25.82a10,10,0,0,1,14.17-9.13,10.18,10.18,0,0,1,3.31,2.43,10.6,10.6,0,0,1,3.33-2.43A9.62,9.62,0,0,1,344.64,15.79Z"/><path class="cls-6" d="M358.51,47.08V15.73h21.94v5.12H363.64v8h12V34h-12v8h16.81v5.12Z"/><path class="cls-6" d="M124.8,57.61h1.41l1.69,6.61,1.82-6.61h1.5l1.69,6.58,1.7-6.58H136l-2.41,8.12h-1.5l-1.71-6.15-1.81,6.15h-1.5Z"/><path class="cls-6" d="M142.55,58.68h-3.16v2.39h2.81v1.08h-2.81v2.49h3.16v1.09h-4.49V57.59h4.49Z"/><path class="cls-6" d="M145.11,57.61h1.34v8.12h-1.34Z"/><path class="cls-6" d="M150.47,57.61v7h2.74v1.08h-4.08V57.61Z"/><path class="cls-6" d="M159.23,57.61h1.33v8.12h-1.33Z"/><path class="cls-6" d="M167,57.5a3.87,3.87,0,0,1,3.78,2.44h-1.6A2.29,2.29,0,0,0,167,58.67a3,3,0,0,0,0,6,2.29,2.29,0,0,0,2.18-1.27h1.6A3.86,3.86,0,0,1,167,65.8a4.15,4.15,0,1,1,0-8.3Z"/><path class="cls-6" d="M178.37,62.18h-3.83v3.55h-1.33V57.61h1.33v3.48h3.83V57.61h1.33v8.12h-1.33Z"/><path class="cls-6" d="M186.36,57.61h1.43L190.65,64l2.84-6.37h1.42v8.12h-1.33V60.17l-2.48,5.56h-.92l-2.49-5.56v5.56h-1.33Z"/><path class="cls-6" d="M197.59,57.61h1.34v8.12h-1.34Z"/><path class="cls-6" d="M204.42,57.61c1.93,0,2.88,1.11,2.88,2.43a2.3,2.3,0,0,1-1.89,2.32l2,3.37h-1.59L204,62.48h-1v3.25h-1.34V57.61Zm0,1.08H203v2.73h1.47A1.32,1.32,0,0,0,205.93,60C205.93,59.22,205.46,58.69,204.42,58.69Z"/><path class="cls-6" d="M216.58,65.81c-1.62,0-2.88-.89-2.88-2.32h1.43a1.31,1.31,0,0,0,1.45,1.2c.94,0,1.46-.5,1.46-1.19,0-2-4.31-.69-4.31-3.68,0-1.43,1.13-2.32,2.79-2.32a2.47,2.47,0,0,1,2.77,2.21h-1.47a1.28,1.28,0,0,0-1.37-1.08c-.77,0-1.37.35-1.37,1.14,0,1.83,4.31.69,4.31,3.66A2.53,2.53,0,0,1,216.58,65.81Z"/><path class="cls-6" d="M226.38,58.68h-3.15v2.39H226v1.08h-2.8v2.49h3.15v1.09H221.9V57.59h4.48Z"/><path class="cls-6" d="M230.28,57.61v7H233v1.08H229V57.61Z"/><path class="cls-6" d="M238.32,65.73h-3.25V57.61h3.1c1.72,0,2.63.94,2.63,2.09a1.9,1.9,0,0,1-1.38,1.86,2,2,0,0,1,1.57,2C241,64.78,240,65.73,238.32,65.73Zm-.27-7h-1.64V61h1.64c.87,0,1.4-.41,1.4-1.16S238.92,58.69,238.05,58.69Zm.11,3.42h-1.75v2.53h1.8c.9,0,1.45-.45,1.45-1.24S239.05,62.11,238.16,62.11Z"/><path class="cls-6" d="M246.05,65.81c-1.63,0-2.88-.89-2.88-2.32h1.43a1.3,1.3,0,0,0,1.45,1.2c.93,0,1.46-.5,1.46-1.19,0-2-4.32-.69-4.32-3.68,0-1.43,1.14-2.32,2.8-2.32a2.48,2.48,0,0,1,2.77,2.21h-1.48a1.27,1.27,0,0,0-1.36-1.08c-.77,0-1.37.35-1.37,1.14,0,1.83,4.3.69,4.3,3.66A2.52,2.52,0,0,1,246.05,65.81Z"/><path class="cls-6" d="M250.94,57.61h5.67v1.08h-2.16v7h-1.34v-7h-2.17Z"/><path class="cls-6" d="M262.2,57.61h1.41l1.69,6.61,1.82-6.61h1.5l1.69,6.58,1.7-6.58h1.43L271,65.73h-1.51l-1.71-6.15L266,65.73h-1.5Z"/><path class="cls-6" d="M275.46,57.61h1.33v8.12h-1.33Z"/><path class="cls-6" d="M283.19,57.5A3.87,3.87,0,0,1,287,59.94h-1.6a2.27,2.27,0,0,0-2.17-1.27,3,3,0,0,0,0,6,2.27,2.27,0,0,0,2.17-1.27H287a3.86,3.86,0,0,1-3.77,2.43,4.15,4.15,0,1,1,0-8.3Z"/><path class="cls-6" d="M294.6,62.18h-3.82v3.55h-1.33V57.61h1.33v3.48h3.82V57.61h1.34v8.12H294.6Z"/><path class="cls-6" d="M298.2,57.61h5.67v1.08H301.7v7h-1.33v-7H298.2Z"/><path class="cls-6" d="M306.14,57.61h1.33v8.12h-1.33Z"/><path class="cls-6" d="M317.64,59.94H316a2.31,2.31,0,0,0-2.17-1.22,2.94,2.94,0,0,0,0,5.88,2.46,2.46,0,0,0,2.59-2.26h-3V61.28h4.48v1a4,4,0,0,1-4,3.48,4.15,4.15,0,1,1,0-8.3A3.87,3.87,0,0,1,317.64,59.94Z"/><path class="cls-6" d="M327.35,65.73H324.1V57.61h3.1c1.71,0,2.63.94,2.63,2.09a1.91,1.91,0,0,1-1.38,1.86,2,2,0,0,1,1.56,2C330,64.78,329,65.73,327.35,65.73Zm-.27-7h-1.65V61h1.65c.86,0,1.39-.41,1.39-1.16S327.94,58.69,327.08,58.69Zm.11,3.42h-1.76v2.53h1.8c.9,0,1.45-.45,1.45-1.24A1.32,1.32,0,0,0,327.19,62.11Z"/>
<path class="cls-6" d="M332.39,57.61h1.34v8.12h-1.34Z"/>
<path class="cls-6" d="M343.09,57.59v8.14h-1.34l-4-6.07v6.07h-1.33V57.59h1.33l4,6.06V57.59Z"/>
</g></g>
</svg>