<svg xmlns="http://www.w3.org/2000/svg" viewBox="0 0 519.12 313.16"><defs><style>.cls-1{fill:#0e4062;}.cls-2{fill:#fff;}</style></defs><g id="Layer_2" data-name="Layer 2"><g id="Layer_1-2" data-name="Layer 1"><polygon class="cls-1" points="518.12 0 0 0 519.12 313.16 518.12 0"/><path class="cls-2" d="M302.54,91.88a17.68,17.68,0,0,1-7.8-1.75,14.91,14.91,0,0,1-5.92-5l3.9-4.58a14.57,14.57,0,0,0,4.41,4.14,10.42,10.42,0,0,0,5.41,1.45q8.08,0,8.08-9.56V50.1h-17V44.25h23.68v32q0,7.86-3.74,11.77T302.54,91.88Z"/><path class="cls-2" d="M345.94,91.75a20.74,20.74,0,0,1-10.06-2.36,17,17,0,0,1-6.73-6.45,18.43,18.43,0,0,1-2.39-9.42,18.85,18.85,0,0,1,2.32-9.42,16.8,16.8,0,0,1,6.39-6.43,18.32,18.32,0,0,1,9.19-2.32,18.07,18.07,0,0,1,9.15,2.29A16.22,16.22,0,0,1,360,64.06a19.92,19.92,0,0,1,2.25,9.66c0,.27,0,.58,0,.94s-.06.7-.1,1H331.81V71h27l-2.62,1.61a12.08,12.08,0,0,0-1.41-6.12,10.82,10.82,0,0,0-4.07-4.2,12.62,12.62,0,0,0-12,0,10.57,10.57,0,0,0-4.1,4.23,12.83,12.83,0,0,0-1.48,6.23v1.07a12.25,12.25,0,0,0,1.64,6.36,11.35,11.35,0,0,0,4.61,4.34,14.5,14.5,0,0,0,6.8,1.55A14.84,14.84,0,0,0,351.89,85a12.53,12.53,0,0,0,4.54-3.23L360,86a15.66,15.66,0,0,1-6,4.31A20.85,20.85,0,0,1,345.94,91.75Z"/><path class="cls-2" d="M366.12,61V55.69h22.74V61Zm17.36,30.75c-3.59,0-6.37-1-8.35-2.89s-3-4.69-3-8.28V47.88h6.46V80.31a6.23,6.23,0,0,0,1.45,4.44,5.38,5.38,0,0,0,4.14,1.55,7.61,7.61,0,0,0,5-1.68l2,4.64a9.36,9.36,0,0,1-3.53,1.88A14.84,14.84,0,0,1,383.48,91.75Z"/><path class="cls-2" d="M395.65,91.34V87.17l22.87-28.39L419.8,61H396.05V55.69H425v4.24L402.11,88.25,400.63,86h24.89v5.31Z"/><path class="cls-2" d="M429,61V55.69h22.74V61Zm17.36,30.75c-3.59,0-6.37-1-8.35-2.89s-3-4.69-3-8.28V47.88h6.46V80.31A6.23,6.23,0,0,0,443,84.75a5.38,5.38,0,0,0,4.14,1.55,7.61,7.61,0,0,0,5-1.68l2,4.64a9.36,9.36,0,0,1-3.53,1.88A14.79,14.79,0,0,1,446.38,91.75Z"/><path class="cls-2" d="M464.94,91.75a4.31,4.31,0,0,1-3.16-1.28,4.14,4.14,0,0,1-1.28-3,4.09,4.09,0,0,1,1.28-3.09,4.41,4.41,0,0,1,3.16-1.21,4.14,4.14,0,0,1,4.31,4.3,4.24,4.24,0,0,1-1.21,3A4.09,4.09,0,0,1,464.94,91.75Zm-2.62-15.27-1.21-32.23h7.6l-1.28,32.23Z"/><path class="cls-2" d="M299.08,151.27v-9.89h19.64v9.89Z"/><path class="cls-2" d="M322.83,165.54v-8.41l17.55-16.42a15.76,15.76,0,0,0,2.83-3.13,9.61,9.61,0,0,0,1.18-2.45,7.76,7.76,0,0,0,.3-2.09,4.34,4.34,0,0,0-1.51-3.5,6.93,6.93,0,0,0-4.54-1.27,10.12,10.12,0,0,0-4.75,1.14,9.41,9.41,0,0,0-3.6,3.36l-9.89-5.45a18.77,18.77,0,0,1,7.54-7.13,24.76,24.76,0,0,1,11.91-2.69,24,24,0,0,1,9.55,1.78,15.31,15.31,0,0,1,6.42,5,12.48,12.48,0,0,1,2.33,7.6,17.78,17.78,0,0,1-.61,4.51,16,16,0,0,1-2.32,4.81,34.72,34.72,0,0,1-5.08,5.62l-13.93,12.91L333.93,155h25.56v10.57Z"/><path class="cls-2" d="M384.11,166.48a20.14,20.14,0,0,1-10.73-2.86,19.59,19.59,0,0,1-7.36-8.38,29.85,29.85,0,0,1-2.7-13.25,29.85,29.85,0,0,1,2.7-13.25,19.59,19.59,0,0,1,7.36-8.38,21.5,21.5,0,0,1,21.43,0,19.35,19.35,0,0,1,7.37,8.38A30.28,30.28,0,0,1,404.83,142a30.28,30.28,0,0,1-2.65,13.25,19.35,19.35,0,0,1-7.37,8.38A20.18,20.18,0,0,1,384.11,166.48Zm0-10.9a5.8,5.8,0,0,0,3.8-1.35,8.77,8.77,0,0,0,2.59-4.34,26.92,26.92,0,0,0,.95-7.9,26.94,26.94,0,0,0-.95-7.94,8.77,8.77,0,0,0-2.59-4.3,6,6,0,0,0-7.6,0,9,9,0,0,0-2.62,4.3,26.16,26.16,0,0,0-1,7.94,26.14,26.14,0,0,0,1,7.9,9,9,0,0,0,2.62,4.34A5.83,5.83,0,0,0,384.11,155.58Z"/><path class="cls-2" d="M420.64,143.94a12.3,12.3,0,0,1-6.22-1.55,10.8,10.8,0,0,1-4.27-4.5,15,15,0,0,1-1.55-7,14.71,14.71,0,0,1,1.55-7,11.07,11.07,0,0,1,4.27-4.51,13.05,13.05,0,0,1,12.45,0,11.27,11.27,0,0,1,4.3,4.51,14.37,14.37,0,0,1,1.58,7,14.61,14.61,0,0,1-1.58,7,11,11,0,0,1-4.3,4.5A12.31,12.31,0,0,1,420.64,143.94Zm-4.23,21.6,32.15-47.1h9.62L426,165.54Zm4.23-28a3.42,3.42,0,0,0,2.83-1.55q1.14-1.55,1.14-5.11t-1.14-5.11a3.42,3.42,0,0,0-2.83-1.55,3.35,3.35,0,0,0-2.75,1.55q-1.15,1.55-1.15,5.11t1.15,5.11A3.35,3.35,0,0,0,420.64,137.55Zm33.24,28.59a12.34,12.34,0,0,1-6.19-1.55,10.71,10.71,0,0,1-4.31-4.5,15,15,0,0,1-1.54-7,14.71,14.71,0,0,1,1.54-7,11,11,0,0,1,4.31-4.51,13,13,0,0,1,12.44,0,10.78,10.78,0,0,1,4.28,4.51,15,15,0,0,1,1.51,7,15.21,15.21,0,0,1-1.51,7,10.52,10.52,0,0,1-4.28,4.5A12.46,12.46,0,0,1,453.88,166.14Zm0-6.39a3.38,3.38,0,0,0,2.82-1.55q1.16-1.55,1.15-5.11T456.7,148a3.31,3.31,0,0,0-5.61,0q-1.18,1.54-1.18,5.11t1.18,5.11A3.41,3.41,0,0,0,453.88,159.75Z"/></g></g></svg>